<svg width="17" height="32" viewBox="0 0 17 32" fill="none" xmlns="http://www.w3.org/2000/svg">
<path d="M8.23929 12.7837C8.72732 9.71605 12.5618 6.4393 15.5597 6.36958C15.7689 6.36958 15.978 6.29986 16.1174 6.16042C16.2569 6.09071 16.3963 6.02099 16.466 5.81183C17.5118 3.85972 16.9541 2.32592 15.2111 1.071C13.1893 -0.393084 9.98225 1.071 8.37873 2.39564C4.33508 5.74211 0.221706 11.5286 0.43086 17.0365C-0.266321 20.7316 -0.126885 24.7055 0.918887 27.9822C1.61607 30.0738 3.6379 31.1195 5.72944 31.259C7.82099 31.3985 12.1435 32.0259 14.0259 30.7711C15.9083 29.516 16.0477 27.0759 16.2569 24.9844C16.466 22.6837 17.0935 18.3611 15.1414 16.5484C13.1893 14.8055 7.61183 16.6879 8.23929 12.7837Z" fill="#143B19"/>
</svg>
