<svg width="68" height="68" viewBox="0 0 68 68" fill="none" xmlns="http://www.w3.org/2000/svg">
<path d="M67.2681 20.2668C67.1119 16.7246 66.539 14.2893 65.7185 12.1791C64.872 9.93917 63.5696 7.93377 61.8634 6.26668C60.1963 4.57364 58.1776 3.25807 55.9637 2.42478C53.8413 1.60421 51.4187 1.03138 47.8765 0.875203C44.3078 0.705798 43.1748 0.666626 34.1236 0.666626C25.0724 0.666626 23.9394 0.705798 20.384 0.861977C16.8417 1.01816 14.4064 1.59149 12.2968 2.41156C10.0563 3.25807 8.05095 4.56041 6.38386 6.26668C4.69082 7.93377 3.37577 9.9524 2.54197 12.1664C1.72139 14.2893 1.14857 16.7113 0.992391 20.2536C0.822985 23.8223 0.783813 24.9552 0.783813 34.0065C0.783813 43.0577 0.822985 44.1907 0.979164 47.7461C1.13534 51.2884 1.70868 53.7237 2.52925 55.8339C3.37577 58.0738 4.69082 60.0792 6.38386 61.7463C8.05095 63.4393 10.0696 64.7549 12.2835 65.5882C14.4064 66.4087 16.8285 66.9816 20.3712 67.1377C23.9262 67.2944 25.0597 67.3331 34.1109 67.3331C43.1621 67.3331 44.2951 67.2944 47.8505 67.1377C51.3928 66.9816 53.828 66.4087 55.9377 65.5882C60.4181 63.8559 63.9603 60.3137 65.6925 55.8339C66.5126 53.7109 67.0859 51.2884 67.2421 47.7461C67.3983 44.1907 67.4375 43.0577 67.4375 34.0065C67.4375 24.9552 67.4242 23.8223 67.2681 20.2668ZM61.2646 47.4857C61.1211 50.7415 60.5742 52.4997 60.1184 53.6718C58.9982 56.5761 56.6932 58.8811 53.7889 60.0013C52.6168 60.4571 50.8459 61.004 47.6028 61.147C44.0865 61.3037 43.0319 61.3423 34.1368 61.3423C25.2418 61.3423 24.174 61.3037 20.6704 61.147C17.4145 61.004 15.6564 60.4571 14.4843 60.0013C13.039 59.4672 11.7234 58.6207 10.6556 57.5137C9.54863 56.4326 8.70212 55.1303 8.16795 53.685C7.71214 52.5129 7.16526 50.7415 7.02231 47.4989C6.86562 43.9826 6.82696 42.9275 6.82696 34.0324C6.82696 25.1373 6.86562 24.0695 7.02231 20.5664C7.16526 17.3106 7.71214 15.5524 8.16795 14.3803C8.70212 12.9345 9.54863 11.6195 10.6688 10.5512C11.7494 9.44418 13.0517 8.59766 14.4975 8.06401C15.6696 7.60819 17.441 7.06131 20.6836 6.91785C24.1999 6.76167 25.255 6.7225 34.1496 6.7225C43.0578 6.7225 44.1124 6.76167 47.616 6.91785C50.8718 7.06131 52.63 7.60819 53.8021 8.06401C55.2474 8.59766 56.563 9.44418 57.6308 10.5512C58.7377 11.6322 59.5843 12.9345 60.1184 14.3803C60.5742 15.5524 61.1211 17.3233 61.2646 20.5664C61.4208 24.0828 61.4599 25.1373 61.4599 34.0324C61.4599 42.9275 61.4208 43.9694 61.2646 47.4857Z" fill="white"/>
<path d="M34.1236 16.8807C24.6689 16.8807 16.9979 24.5513 16.9979 34.0065C16.9979 43.4617 24.6689 51.1323 34.1236 51.1323C43.5788 51.1323 51.2493 43.4617 51.2493 34.0065C51.2493 24.5513 43.5788 16.8807 34.1236 16.8807ZM34.1236 45.1156C27.9899 45.1156 23.0146 40.1407 23.0146 34.0065C23.0146 27.8723 27.9899 22.8974 34.1236 22.8974C40.2578 22.8974 45.2326 27.8723 45.2326 34.0065C45.2326 40.1407 40.2578 45.1156 34.1236 45.1156Z" fill="white"/>
<path d="M55.9252 16.2036C55.9252 18.4115 54.1349 20.2017 51.9266 20.2017C49.7187 20.2017 47.9285 18.4115 47.9285 16.2036C47.9285 13.9952 49.7187 12.2055 51.9266 12.2055C54.1349 12.2055 55.9252 13.9952 55.9252 16.2036Z" fill="white"/>
</svg>
